<svg width="80" height="109" viewBox="0 0 80 109" fill="none" xmlns="http://www.w3.org/2000/svg">
<path fill-rule="evenodd" clip-rule="evenodd" d="M55.5336 33.085C55.1477 33.746 53.5654 33.4942 54.1428 34.9096C54.1824 35.009 54.0283 35.3059 53.9227 35.3301C52.6207 35.6345 52.5168 36.9121 51.9601 37.7848C50.8691 39.499 49.9498 41.321 48.8756 43.047C47.7904 44.7905 46.9774 46.6727 45.435 48.1813C44.3267 49.2647 43.6334 50.8518 42.9968 52.3186C42.3162 53.8893 40.7724 54.7731 40.1021 56.2775C39.1774 58.3572 37.1671 59.6624 36.3153 61.7744C36.2842 61.8525 36.2494 61.9444 36.1864 61.9921C34.1841 63.5132 32.9977 65.764 31.2505 67.5154C30.5951 68.1727 29.5663 68.5713 29.5761 69.7378C30.0353 70.3575 30.7657 70.0818 31.336 70.285C33.0686 70.9016 34.9251 71.1619 36.5537 72.0764C37.5362 71.4462 38.1295 72.6585 39.107 72.6194C39.9307 72.5872 40.9963 72.9611 41.8088 73.413C42.6225 73.8666 43.653 73.4743 44.3252 74.2234C45.6364 73.8079 46.5073 75.0005 47.7577 75.1458C49.9939 75.4054 52.1849 76.1671 54.4276 76.6116C55.7277 76.8686 56.7913 76.6991 57.7003 76.4631C58.7185 75.3416 58.7672 74.1465 58.7511 73.0713C58.7075 70.1265 58.6532 67.1572 58.2466 64.2475C57.6095 59.6948 57.2568 55.1219 56.8709 50.5504C56.5547 46.8102 56.3335 43.0623 56.0896 39.3164C55.9532 37.2341 56.1597 35.1235 55.5336 33.085ZM51.5246 84.8347C50.7476 85.0436 50.0915 85.2187 49.4361 85.3943C49.4115 85.3176 49.3877 85.2392 49.3631 85.1624C49.3119 85.0122 49.235 84.7253 49.2117 84.7302C46.9501 85.1305 45.2619 82.8539 42.9579 83.3817C42.8108 83.0467 42.7752 82.427 42.3139 82.498C41.4567 82.6293 40.8443 82.5289 40.5854 81.611C40.5382 81.4426 40.3735 81.3712 40.2244 81.5362C39.4132 82.4334 38.8234 81.8235 38.0379 81.4088C37.3087 81.0254 36.3549 81.0945 35.5186 80.8854C33.2794 80.3265 31.2308 79.1147 28.9072 78.8682C28.1589 78.7885 28.3604 77.5846 27.2721 77.8175C26.7676 77.926 25.8553 77.9306 25.2096 77.3391C24.6939 76.8678 23.8573 77.068 23.1529 76.7778C21.8692 76.2479 20.4764 76.4202 19.3373 77.4244C19.2936 77.2612 19.2498 77.098 19.2064 76.9361C18.1748 76.7274 17.6899 77.052 18.0113 78.1623C17.6828 78.2496 17.3552 78.3374 17.0245 78.4267C16.9496 78.1981 16.8746 77.9695 16.8021 77.7498C15.8374 77.6659 15.2869 79.0488 14.3704 78.6145C13.6117 78.2562 12.8619 78.082 12.1396 78.0357C11.6099 77.316 12.6687 76.953 12.3418 76.3526C11.954 76.369 11.5335 76.7352 11.13 76.0323C11.3833 75.4479 11.5193 74.6168 12.523 74.4127C12.0897 73.4254 11.3396 72.7907 10.4091 72.2406C9.43056 71.6638 8.6435 70.871 8.90949 69.5049C9.11066 68.4733 7.78511 67.7414 8.44402 66.531C8.53903 66.4878 8.82754 66.3558 9.10871 66.2067C10.1869 65.6329 11.2255 65.3272 12.6007 65.7548C14.7555 66.4244 17.1603 66.3341 19.2677 67.095C21.045 67.7352 21.8327 66.6844 22.7363 65.8363C23.3583 65.2535 23.9615 64.5336 24.4544 63.8515C25.9794 61.7422 28.0397 60.0553 29.2548 57.7154C31.0216 56.746 31.2592 54.5929 32.6938 53.3195C34.0885 52.0835 34.4443 50.0225 35.6938 48.7133C37.9998 46.2985 39.2231 43.2574 40.9298 40.503C42.6268 37.7634 44.1717 34.9307 45.7832 32.1396C47.4371 29.2749 49.425 26.5449 50.6527 23.5075C51.8859 20.4549 53.6814 17.7744 55.1102 14.9263C56.1671 14.6431 57.1502 14.3797 57.9993 14.1522C58.1834 14.8394 58.3696 15.5343 58.5693 16.2768C59.6845 15.762 60.4395 16.2799 60.8153 16.8051C62.3632 18.9662 63.483 21.2455 63.4129 24.0998C63.3043 28.4581 63.5155 32.8263 63.642 37.1899C63.7376 40.5376 63.9789 43.8886 64.2767 47.1957C64.6612 51.4561 64.8583 55.7591 65.6935 59.9854C66.0209 61.6434 65.7151 63.4499 66.3945 65.0136C66.7327 65.7941 65.2654 66.2748 66.3653 67.0036C67.0707 67.4712 66.4016 68.3986 66.6688 69.0745C66.9766 69.8536 66.816 70.7125 67.0019 71.4676C67.1868 72.2188 66.8099 72.9313 67.1318 73.6507C67.4338 74.3241 67.3128 75.0862 67.3937 75.8011C67.581 77.4741 67.6065 79.1454 67.559 80.8143C67.5014 82.8126 66.5109 84.3284 64.8077 85.3669C64.605 85.4902 64.3564 85.6764 64.2028 85.7128C63.4017 85.9056 63.2439 87.0377 62.5732 87.0438C60.9084 87.0601 59.2109 87.5922 57.6006 87.1108C56.7959 86.8693 56.0379 86.8326 55.2586 86.8364C54.4927 86.8415 54.0803 86.0419 53.1888 86.1803C52.5688 86.2761 51.7128 85.8994 51.5246 84.8347Z" fill="#FDF6CF"/>
</svg>
