<svg width="76" height="141" viewBox="0 0 76 141" fill="none" xmlns="http://www.w3.org/2000/svg">
<path opacity="0.1" fill-rule="evenodd" clip-rule="evenodd" d="M73.7037 45.8181C73.7685 45.5372 73.8817 45.4221 73.8985 45.2421C73.98 44.3756 73.8903 43.513 73.8642 42.6502C73.8384 41.8115 73.7992 40.9642 73.6552 40.1404C73.5089 39.3015 73.6448 38.4664 73.5443 37.6236C73.4173 36.5564 73.3771 35.4905 73.0698 34.443C72.9014 33.8681 72.4083 33.4784 72.3201 32.8839C72.3103 32.8192 72.2852 32.755 72.2575 32.6947C72.2213 32.6171 72.1906 32.508 72.0372 32.6449C72.2192 33.3048 72.3925 33.9888 72.5397 34.6742C72.7607 35.706 72.9869 36.7276 73.132 37.776C73.1928 38.2148 73.2405 38.6544 73.2346 39.0863C73.2282 39.5621 73.3756 40.0072 73.3821 40.4821C73.3984 41.6883 73.4137 42.8959 73.4934 44.1023C73.5276 44.6236 73.3714 45.1574 73.7037 45.8181ZM23.8476 80.5538C23.5971 81.0069 23.4872 81.4347 23.4675 81.7855C23.407 82.8573 23.4094 83.9306 23.3157 85.0026C23.1898 86.4377 23.0598 87.8787 23.0646 89.3168C23.0668 90.0726 22.8739 90.9092 23.4636 91.6397C23.5637 90.7335 23.7369 89.8656 23.7375 88.9981C23.7374 87.7048 23.8345 86.4229 23.9493 85.1385C23.9955 84.6196 24.1138 84.0867 24.0424 83.5824C23.9621 83.015 24.0209 82.4748 24.0488 81.9183C24.072 81.4698 24.1993 80.9734 23.8476 80.5538ZM64.4437 155.526C64.6336 155.622 64.6928 155.651 64.7524 155.681C64.5224 155.978 64.5614 156.486 64.0194 156.516C64.0997 156.758 64.1399 156.956 64.2289 157.13C64.3442 157.352 64.2235 157.514 64.1263 157.677C63.9922 157.903 63.7972 157.665 63.6358 157.715C63.6518 158.119 63.6671 158.52 63.6829 158.919C63.4567 158.932 63.5369 158.503 63.1226 158.703C63.3794 159.053 62.8175 159.272 62.9573 159.698C63.1088 159.749 63.2567 159.817 63.4119 159.849C63.5991 159.887 63.5395 159.569 63.7217 159.586C63.8367 159.674 63.8185 159.85 63.9774 159.871C63.8685 159.656 64.2705 159.347 63.8387 159.178C64.0361 158.794 64.1772 158.366 64.4445 158.041C64.7133 157.714 64.7711 157.322 64.956 156.974C65.1588 156.593 65.4411 156.22 65.5129 155.813C65.5886 155.387 65.8151 155.043 65.9327 154.648C66.0409 154.285 66.185 153.928 66.3499 153.587C66.5331 153.209 66.6299 152.793 66.7368 152.406C66.8376 152.041 67.0528 151.694 67.168 151.096C66.1045 152.152 65.9594 153.535 65.0209 154.33C65.0065 154.604 65.2162 154.787 65.1568 154.988C64.931 155.159 64.7353 155.306 64.4437 155.526ZM104.645 36.0906C104.441 36.5527 104.977 36.6539 105.064 36.99C105.461 38.5165 106.362 39.8566 106.725 41.3994C106.763 41.5609 106.779 41.7782 106.889 41.8624C107.29 42.1725 107.365 42.6339 107.47 43.0619C107.582 43.5177 107.928 43.8347 108.077 44.2474C108.472 45.3426 108.873 46.4406 109.17 47.5644C109.474 48.7135 110.177 49.6854 110.489 50.8274C110.743 51.7571 111.084 52.6629 111.392 53.5772C111.442 53.7245 111.435 53.9137 111.847 54.0644C111.284 53.2728 111.484 52.4635 111.207 51.7359C110.959 51.0831 110.748 50.4158 110.545 49.747C110.338 49.0634 109.881 48.5041 109.665 47.8118C109.368 46.8552 109.171 45.8571 108.572 44.9942C108.28 44.5751 108.252 43.9823 108.038 43.4975C107.82 43.0025 107.802 42.4534 107.383 41.9943C107.055 41.6355 107.016 41.0128 106.849 40.5074C106.733 40.16 106.712 39.721 106.482 39.4862C106.106 39.1026 106.125 38.5737 105.851 38.1984C105.535 37.7666 105.348 37.3013 105.21 36.8084C105.118 36.4755 104.829 36.3361 104.645 36.0906ZM109.346 58.6988C109.449 57.5821 109.015 56.5905 108.682 55.5757C108.215 54.1522 107.69 52.746 107.282 51.306C106.723 49.3363 105.788 47.5127 105.158 45.5732C105.138 45.5102 105.127 45.441 105.094 45.3846C104.916 45.0762 104.681 44.8017 104.573 44.4505C104.437 44.0052 104.228 43.5741 104.152 43.1202C104.076 42.6713 103.663 42.4508 103.557 42.0335C103.443 41.583 103.306 41.1314 103.115 40.7086C102.92 40.2757 103.013 39.6978 102.493 39.4184C102.452 39.3968 102.416 39.2737 102.439 39.2385C102.729 38.8025 102.314 38.6204 102.136 38.3469C101.913 38.0018 101.608 37.6982 101.555 37.2584C101.551 37.2206 101.458 37.193 101.406 37.1604C101.316 37.1945 101.208 37.2028 101.164 37.3964C101.114 37.6276 101.488 37.5879 101.561 37.8386C101.825 38.742 102.227 39.5971 102.579 40.4672C103.068 41.6755 103.773 42.8046 104.04 44.1015C104.054 44.1661 104.061 44.2577 104.105 44.2864C104.534 44.5708 104.591 45.0552 104.689 45.4811C104.795 45.9453 105.151 46.2475 105.307 46.6635C105.936 48.3546 106.413 50.0933 107.166 51.751C107.863 53.2885 108.268 54.9587 108.802 56.57C108.854 56.7282 108.982 56.9059 108.946 57.0408C108.778 57.6775 109.206 58.1479 109.346 58.6988ZM8.56257 55.8489C8.43302 55.7305 8.22659 55.7166 8.2378 55.4802C8.4378 55.2078 8.47513 54.8103 8.78557 54.5905C8.87839 54.5246 8.95705 54.4592 8.90798 54.3704C8.7284 54.0463 9.05338 53.7981 9.03205 53.5497C9.00233 53.2014 9.20673 52.9959 9.31877 52.7387C9.41685 52.5129 9.52279 52.2956 9.74384 52.11C9.89852 51.9804 9.83261 51.5893 9.86508 51.3145C9.89416 51.0656 10.2031 51.0335 10.2574 50.8164C10.2739 50.6368 9.97226 50.4218 10.2853 50.3065C10.582 50.1978 10.3957 49.9712 10.4384 49.8158C10.5041 49.5771 10.8833 49.5707 10.8079 49.3116C10.6583 48.7961 11.0219 48.4047 11.0503 47.916C11.2596 48.0118 11.4311 48.0905 11.6033 48.1685C11.7451 47.8405 11.4622 47.6845 11.3227 47.5081C11.5092 47.1599 11.8308 47.1463 12.2012 47.1086C11.7974 46.9394 11.8303 46.5938 11.7473 46.3118C11.9071 45.9751 12.0882 45.655 12.3198 45.1112C11.0719 46.0021 11.1374 47.3135 10.5827 48.3048C10.4461 48.2277 10.3358 48.1442 10.124 48.2622C10.2925 48.9162 9.73514 49.3764 9.50203 49.9496C9.6423 50.0317 9.7261 50.0807 9.81128 50.1305C9.61624 50.6671 9.24963 51.1309 9.16083 51.7297C9.12165 51.9947 9.00338 52.3658 8.73474 52.4752C8.22052 52.6846 8.11508 53.1329 8.03715 53.5582C7.99853 53.769 7.89049 53.7982 7.78188 53.8909C7.70436 53.9575 7.72119 54.0083 7.81767 54.0257C8.0048 54.078 8.17476 53.8279 8.35892 53.9854C8.38311 54.0584 8.43455 54.1298 8.41951 54.181C8.30724 54.5621 7.92506 54.7937 7.80869 55.1426C7.68625 55.5093 7.88091 55.9477 7.66403 56.3264C7.64775 56.3554 7.63391 56.3858 7.61903 56.4155C7.36806 56.4851 7.10143 55.9296 6.78854 56.481C7.14562 56.6734 7.46682 56.8461 7.76266 57.0051C8.07379 56.5952 8.11399 56.0886 8.56257 55.8489ZM106.684 60.7349C106.758 60.5628 106.882 60.4178 106.85 60.3269C106.668 59.8073 106.787 59.2532 106.585 58.7221C106.135 57.5408 105.773 56.3257 105.375 55.1245C105.071 54.208 104.783 53.2853 104.459 52.376C104.143 51.4901 103.908 50.5844 103.416 49.7493C103.013 49.0653 102.879 48.2396 102.462 47.5228C102.044 46.8035 101.962 45.9308 101.487 45.1941C101.136 44.6525 100.985 43.9594 100.846 43.3119C100.698 42.6236 100.17 42.1421 99.994 41.4685C99.7082 40.3752 98.9998 39.5103 98.3113 38.5843C98.1798 39.1509 98.685 39.3521 98.811 39.7396C98.9789 40.2567 99.193 40.7458 99.4696 41.2312C99.8643 41.9225 100.03 42.7326 100.427 43.4555C100.86 44.2434 100.961 45.1805 101.472 45.9704C101.814 46.4976 101.88 47.1728 102.263 47.7279C102.553 48.149 102.674 48.7127 102.775 49.2313C102.879 49.7663 103.301 50.1072 103.462 50.6022C104.392 53.452 105.333 56.2971 106.291 59.1371C106.456 59.6258 106.24 60.1808 106.684 60.7349ZM68.6616 156.83C68.7709 156.294 68.8165 155.728 69.1382 155.291C69.8951 154.265 69.8322 152.88 70.6703 151.9C70.538 151.217 70.9927 150.686 71.1765 150.093C71.4385 149.251 71.6311 148.385 71.927 147.56C72.1947 146.813 72.3653 146.05 72.5759 145.292C72.7871 144.535 72.9924 143.771 73.2539 143.034C73.5814 142.111 73.6525 141.135 73.9674 140.21C74.1845 139.573 74.469 138.924 74.3904 138.211C74.3813 138.127 74.4875 138.038 74.5152 137.943C74.7438 137.16 75.021 136.385 75.1805 135.587C75.4784 134.093 75.7888 132.603 76.1744 131.127C76.2231 130.941 76.4372 130.651 76.11 130.365C76.0107 130.563 75.8585 130.742 75.8329 130.937C75.6787 132.116 75.2977 133.24 75.0435 134.393C74.8507 135.27 74.66 136.149 74.4761 137.028C74.2204 138.253 73.7489 139.43 73.4752 140.657C73.2969 141.455 72.993 142.232 72.8448 143.018C72.5774 144.437 72.0565 145.778 71.7424 147.181C71.4966 148.281 71.0646 149.347 70.7236 150.428C70.3887 151.492 70.0389 152.583 69.504 153.584C69.3807 153.815 69.306 154.048 69.2981 154.311C69.2895 154.591 68.784 154.633 68.9507 155.009C68.5757 155.554 68.5412 156.241 68.2053 156.802C68.1573 156.882 68.1474 156.922 68.2377 156.955C68.3918 156.983 68.5294 156.894 68.6616 156.83ZM114.231 52.4601C114.248 52.1431 114.611 51.7832 114.119 51.5428C114.374 51.2736 113.986 51.2766 113.938 51.1306C113.874 50.9323 114.076 50.7908 113.986 50.57C113.856 50.2542 114.158 49.8177 113.656 49.5777C113.456 49.4819 113.888 49.1315 113.609 48.9822C113.328 48.8318 113.367 48.6942 113.443 48.4337C113.497 48.2491 113.281 48.0067 113.471 47.7934C112.878 47.395 112.996 46.6728 112.717 46.13C112.589 45.8836 112.589 45.566 112.291 45.4232C112.493 45.0397 112.317 44.5654 112.088 44.4563C111.628 44.2377 111.957 43.8092 111.68 43.5223C111.428 43.2611 111.328 42.8013 111.088 42.4549C110.924 42.219 110.886 41.8954 110.792 41.6109C110.687 41.2947 110.533 40.985 110.493 40.6611C110.462 40.3979 109.992 40.3087 110.247 39.9669C110.041 39.7255 109.826 39.5003 109.761 39.1617C109.706 38.8699 109.59 38.5878 109.484 38.3079C109.339 37.9219 109.186 37.5545 108.95 37.193C108.682 36.7824 108.289 36.3878 108.247 35.8408C108.236 35.6947 108.09 35.6466 108.018 35.5526C107.793 35.2572 107.522 34.9462 107.443 34.6013C107.348 34.1907 107.09 33.8345 106.85 33.6467C106.47 33.3496 106.525 32.8995 106.23 32.5837C105.858 32.1844 105.514 31.7047 105.276 31.2243C104.772 30.2069 103.773 29.5243 103.449 28.3947C103.395 28.209 103.032 28.2492 102.914 28.011C102.451 27.0752 101.76 26.301 101.092 25.5059C101.234 25.8768 101.124 26.3822 101.671 26.5285C101.87 26.5816 101.867 26.7721 101.924 26.9193C102.006 27.134 102.022 27.4196 102.174 27.5542C102.957 28.2467 103.394 29.1878 104.024 29.9843C104.278 30.3054 104.313 30.7111 104.57 30.9729C105.162 31.5782 105.613 32.2677 106.085 32.965C106.483 33.5522 106.866 34.1756 107.208 34.7776C107.563 35.4024 108.033 36.028 108.144 36.789C108.158 36.8861 108.177 37.0313 108.24 37.065C108.653 37.283 108.671 37.7146 108.761 38.0737C108.859 38.4706 109.212 38.6816 109.329 39.0622C109.477 39.5477 109.686 40.0056 109.945 40.4628C110.354 41.182 110.484 42.0506 110.953 42.7711C111.111 43.014 111.152 43.3337 111.246 43.6178C111.33 43.8706 111.461 44.1191 111.485 44.3773C111.512 44.6721 111.882 44.8129 111.816 45.0764C111.72 45.4557 112.008 45.5736 112.172 45.7857C112.247 45.8811 112.174 45.9732 112.129 46.0579C112.034 46.2367 112.149 46.4798 112.218 46.5076C112.524 46.6322 112.546 46.9026 112.622 47.1449C112.715 47.4407 112.906 47.7285 112.742 48.0598C113.16 48.2293 113.057 48.678 113.233 48.9773C113.428 49.3105 113.255 49.7651 113.589 50.0527C113.43 50.9564 114.033 51.6509 114.231 52.4601ZM4.15826 95.149C4.2201 94.9734 4.24798 94.9364 4.2391 94.9142C3.66275 93.4799 3.4126 91.9548 3.01636 90.428C3.03226 90.3467 3.15262 90.3581 3.28309 90.2883C3.34216 89.9773 3.00016 89.6556 3.20855 89.2932C3.25702 89.2089 3.1182 89.0241 2.98102 88.9001C2.69717 88.6433 2.592 88.3061 2.8713 87.9422C3.08818 87.885 2.96867 88.2337 3.18087 88.1997C3.43013 87.7929 2.92073 87.7139 2.83183 87.4817C2.7612 87.2044 3.09354 87.2977 3.11148 87.1212C3.01791 86.9646 2.89162 87.089 2.78238 87.0774C2.13559 85.8427 2.33404 85.9816 2.32064 84.6818C2.08021 84.3126 1.72615 84.5662 1.35468 84.5155C1.922 84.0925 0.996398 83.8395 1.36263 83.3921C1.62571 83.4149 1.84489 83.6839 2.201 83.7068C2.07731 83.4254 2.14498 83.0997 1.80741 82.9498C1.38116 82.7607 1.27804 82.4436 1.39748 82.0015C1.43306 81.87 1.3321 81.7016 1.29771 81.564C1.12416 81.5598 1.00147 81.5564 0.881562 81.5533C0.910181 81.4894 0.920183 81.4101 0.958097 81.3929C1.13713 81.3123 1.37896 81.2967 1.49193 81.1658C1.60815 81.0308 1.87292 80.7536 1.51378 80.6063C1.25712 80.5014 1.66165 80.1451 1.27494 80.1277C1.23301 80.1257 1.42244 79.9985 1.5097 79.9206C1.60109 79.685 1.08525 79.7019 1.28574 79.4182C1.37251 79.2956 1.38679 79.1547 1.29753 79.0518C0.746849 78.4161 0.962204 77.7928 1.30618 77.1651C1.31687 77.1449 1.28034 77.1034 1.27947 77.0716C1.27773 77.0105 1.28595 76.9491 1.29308 76.8471C1.47548 77.0249 1.64004 77.1849 1.78924 77.33C1.85554 77.7619 1.35425 77.8088 1.29125 78.1743C1.45933 78.3822 1.6212 78.6297 1.90788 78.7331C2.30564 78.5299 1.90412 78.2522 1.96356 77.9925C2.0181 77.7552 2.12686 77.4532 1.95223 77.1556C1.7881 76.8746 1.73044 76.5316 1.6038 76.1494C2.07123 76.0598 2.27751 75.7166 2.36948 75.2824C2.24294 74.9098 1.88712 75.0555 1.6383 74.9593C1.7046 74.6235 2.29181 74.674 2.80863 75.0713C3.37551 74.5095 2.54927 74.2699 2.52341 73.8424C2.5535 73.5418 2.95766 73.7097 3.01862 73.4475C2.9382 73.009 2.53312 73.1564 2.32775 73.0631C2.32724 72.7715 2.12342 72.5279 2.22109 72.2775C2.09112 72.0727 1.70297 72.3947 1.6999 71.9835C1.8166 71.7148 1.99579 71.8083 2.179 71.9105C2.4877 71.6295 2.26369 71.1456 2.5931 70.8817C2.39899 70.7152 2.19949 70.6454 1.88956 70.713C1.99579 70.1459 0.964588 69.9144 1.51899 69.2066C1.7086 69.2395 1.70044 69.7123 2.07107 69.3969C2.14562 69.0499 1.66921 68.9843 1.61063 68.6409C1.55388 68.31 1.62196 68.0181 1.62738 67.7094C1.79655 67.7051 1.98559 67.9844 2.12577 67.669C2.14933 67.5211 2.08437 67.4322 1.95207 67.3649C1.74985 67.2624 1.66176 67.0257 1.75009 66.8764C2.02843 66.4082 1.89659 65.8915 1.99514 65.4061C2.07802 64.9981 1.90966 64.5027 2.41655 64.2445C2.44763 64.2288 2.45919 64.118 2.43854 64.0685C2.30739 63.7484 2.51058 63.4449 2.48331 63.147C2.4532 62.8232 2.71242 62.6095 2.7003 62.3283C2.68485 61.9671 3.09702 61.677 3.00755 61.4395C2.86377 61.058 3.50148 61.0466 3.24533 60.7173C3.54989 60.5439 3.64212 60.2211 3.80023 59.9306L3.55606 59.1937C3.72686 58.86 3.98789 58.7298 4.35587 58.7932C4.52713 58.525 4.24657 58.3107 4.26653 58.0389C4.34879 57.9738 4.44544 57.8974 4.57133 57.7974L4.36934 57.1878C4.49176 57.0831 4.5854 57.0035 4.69088 56.9129C4.68985 56.586 4.08965 56.5475 4.31582 56.0943C4.39243 56.0191 4.44207 56.1841 4.58583 56.1264C4.4738 55.8698 4.73916 55.5256 4.38328 55.2495C4.64045 55.0203 5.1585 55.1254 5.17162 54.5336L4.89162 53.6885C5.40038 53.1633 5.63956 52.4406 6.21841 51.986C6.11022 51.8435 5.98256 51.9615 5.82771 51.9333C5.74856 51.6862 6.1347 51.512 5.98685 51.2661C5.81334 50.9778 6.08065 50.9039 6.19091 50.7334C6.3301 50.5186 6.43098 50.2826 6.66644 50.144L6.54441 49.7757C6.56756 49.6557 6.63833 49.6048 6.73929 49.5752C6.83145 49.5482 6.91878 49.5053 6.99785 49.4737C7.08569 49.21 6.86484 49.028 6.89351 48.68C6.95415 48.4681 7.41573 48.2793 7.21359 47.8125C7.17725 47.7284 7.48462 47.603 7.57013 47.4056C7.81923 46.8306 8.21407 46.3297 8.41434 45.7237C8.51359 45.4245 8.69955 45.1657 8.94178 44.9311C9.16868 44.7119 9.11051 44.3325 9.22507 44.0305C9.33508 43.7405 9.76415 43.6539 9.6612 43.25C9.62507 43.1072 9.87624 43.1162 9.91872 43.0079C10.0154 42.7628 10.269 42.6534 10.3092 42.3155C10.3692 41.8093 10.9302 41.5095 11.0994 41.0007C11.243 40.5687 11.4982 40.1808 11.8482 39.8966C12.1463 39.6546 11.943 39.126 12.4068 39.0137C12.6047 38.4147 13.1111 38.0011 13.3573 37.4324C13.4613 37.1919 13.5972 36.9812 13.8182 36.8351C13.962 36.7403 13.852 36.2859 14.24 36.5367C14.3474 36.2363 14.3262 35.8778 14.6911 35.6975C14.7662 35.6599 14.6288 35.4549 14.8125 35.3034C15.1951 34.9879 15.3718 34.4774 15.7735 34.1567C15.8912 34.0625 16.0575 33.9086 16.0873 33.832C16.4801 32.8145 17.4163 32.2257 17.99 31.3582C18.0444 31.2757 18.0617 31.1612 18.1288 31.0945C18.6308 30.5944 19.2675 30.2224 19.6496 29.6119C20.0216 29.0177 20.5411 28.5643 21.0622 28.138C21.3626 27.8926 21.4607 27.5027 21.802 27.3236C22.1831 27.1236 22.3731 26.7523 22.5521 26.378C22.7332 26.4319 22.8478 26.4657 22.9617 26.4998C22.9435 25.8879 23.3966 25.5498 23.7861 25.2193C23.9253 25.1014 24.0686 24.9605 24.1842 24.8353C24.9829 23.9702 25.8481 23.1856 26.8072 22.5031C26.9052 22.4332 26.9627 22.3084 27.0486 22.2182C27.4713 21.7744 27.9424 21.4257 28.5645 21.2833C29.0431 21.1737 30.2801 20.3 30.7322 19.8461C31.6249 18.9501 32.5007 18.0358 33.42 17.1677C34.0676 16.556 34.77 16.0014 35.4579 15.4331C36.1952 14.8241 36.947 14.2322 37.5896 13.496C38.0854 13.754 38.3524 13.2877 38.7206 13.092C39.1448 12.8661 38.8553 12.2765 39.2722 12.0693C39.5098 11.7999 39.775 12.1517 40.0118 12.0323C40.2086 11.8355 39.955 11.6652 39.9979 11.4661C40.1006 11.2915 40.244 11.305 40.4278 11.431C40.4733 11.4707 40.5106 11.4502 40.534 11.3521C40.6135 11.0178 40.8874 10.8074 41.1266 10.6301C41.3091 10.4948 41.4945 10.4067 41.6006 10.184C41.7564 9.8564 42.0231 9.83175 42.3271 9.98999C42.524 9.57893 42.6794 9.1766 43.2254 9.03277C43.4585 8.97097 43.4891 8.44131 43.8996 8.42342C43.9649 8.14744 44.1997 8.05807 44.4227 8.04977C44.839 8.0342 44.4765 7.619 44.7782 7.4789C45.5979 7.09771 46.2991 6.50566 47.0944 6.06232C47.5135 5.82927 48.0559 5.73526 48.3566 5.27167C48.4556 5.11961 48.641 5.29826 48.7858 5.31011C48.8636 5.15581 48.9381 5.00684 49.0251 4.83367C49.3191 4.78218 49.5885 4.50611 49.9337 4.65921C50.0966 4.73145 50.0742 4.59724 50.121 4.53928C50.6278 3.91514 51.3878 3.65063 52.0093 3.19308C52.4677 2.85514 53.0822 2.81327 53.4662 2.4811C54.1013 1.9318 55.0372 2.05864 55.5781 1.39621C56.2116 1.28822 56.7493 0.846853 57.4635 0.955657C57.7863 1.00503 58.1476 0.722057 58.5036 0.643454C59.7903 0.359967 61.0939 0.149628 62.4039 0.411884C63.0119 0.53348 63.6259 0.771983 64.2291 0.73462C64.8903 0.693879 65.509 0.908084 66.1712 0.87163C66.7056 0.842011 67.2586 1.1366 67.8016 1.29365C68.6985 1.55307 69.5863 1.84594 70.5487 1.74054C70.6724 1.72696 70.8585 1.76334 71.002 1.80265C71.5745 1.96033 72.1815 1.94139 72.7354 2.07553C73.3097 2.2141 73.9295 2.24419 74.4656 2.51315C75.138 2.85002 75.951 2.82611 76.5312 3.4367C76.8332 3.75424 77.358 3.84708 77.7257 4.11816C78.0652 4.36812 78.3648 4.64324 78.7873 4.77227C79.0127 4.8408 79.1886 5.06658 79.3911 5.21526C80.0118 5.6723 80.7763 5.84551 81.4268 6.24213C81.7591 6.44467 82.1195 6.58654 82.4485 6.81064C82.7358 7.00684 83.1471 7.07168 83.4638 7.26782C85.0567 8.2546 86.7569 9.09119 88.0605 10.491C88.2547 10.6996 88.629 10.5875 88.7387 10.7346C88.8932 10.9412 89.1012 10.9946 89.2725 11.1308C90.1543 11.8318 91.0499 12.517 91.8944 13.2603C92.0801 13.4235 92.3875 13.5988 92.3652 13.9485C92.3489 14.1966 92.6059 14.2721 92.7289 14.3579C93.3035 14.7596 93.5865 15.3409 93.8743 15.9395C94.0073 16.215 94.2197 16.4519 94.3961 16.706L94.6513 17.5764C94.6096 18.1857 95.1259 18.5091 95.4744 18.7734C95.9785 19.1556 96.4 19.6146 96.8703 20.0219C97.3837 20.4671 97.8845 20.9384 98.3609 21.4174C98.9442 22.0038 99.5139 22.619 100.053 23.2458C101.016 24.366 101.957 25.5118 102.77 26.7553C103.208 27.4253 103.709 28.0556 104.199 28.6908C104.766 29.4268 105.4 30.115 105.795 30.9709C106.279 31.1018 106.093 31.652 106.394 31.92C106.642 32.1404 106.813 32.4508 107.006 32.7299C107.487 33.4263 107.844 34.1973 108.304 34.9048C108.393 35.0417 108.298 35.0683 108.281 35.1374C108.237 35.316 108.301 35.4929 108.404 35.5877C108.585 35.7536 108.989 35.7449 108.777 36.1631C108.991 36.3598 109.081 36.6429 109.24 36.8634C109.872 37.7408 109.919 38.9333 110.781 39.6771C110.803 39.6958 110.807 39.7381 110.814 39.7705C111.081 41.0324 111.909 42.0741 112.218 43.3238C112.266 43.5179 112.097 43.7508 112.228 43.8269C112.475 43.9699 112.484 44.1991 112.553 44.4055C112.619 44.604 112.714 44.7364 112.907 44.84C113.109 44.9478 112.739 45.1977 112.961 45.315C113.176 45.4291 113.173 45.6369 113.233 45.813C113.524 46.6637 113.773 47.5303 114.101 48.3661C114.217 48.6623 114.026 49.0176 114.32 49.2541C114.124 49.6079 114.41 49.8832 114.484 50.1895C114.57 50.544 114.823 50.8964 114.794 51.2319C114.755 51.6816 114.853 52.073 115.026 52.4464C115.212 52.8473 114.98 53.2864 115.205 53.67C115.292 53.8169 115.206 53.9831 115.21 54.1296C115.23 54.783 115.27 55.4431 115.388 56.0849C115.594 57.1973 115.55 58.3145 115.524 59.4298C115.508 60.1664 115.455 60.913 115.308 61.6331C115.022 63.0433 114.73 64.4523 114.245 65.8192C113.961 66.6193 113.683 67.4273 113.447 68.2491C113.199 69.1146 112.742 69.9198 112.378 70.7523C112.079 71.4377 111.617 72.0493 111.489 72.8147C111.447 73.0608 111.284 73.285 111.009 73.4168C111.106 73.4768 111.182 73.5237 111.285 73.5877C111.041 73.8731 111.041 74.295 110.66 74.5313C110.366 74.7133 110.535 75.1377 110.356 75.4197C109.868 76.1888 109.734 77.1582 109.014 77.7977C108.955 78.246 108.82 78.6544 108.428 78.9308C108.582 79.4214 107.949 79.3538 107.945 79.7339C107.834 79.8546 108.029 79.7741 108.032 79.938C107.737 80.1723 107.656 80.6315 107.391 80.9574C107.118 81.2923 107.016 81.718 106.61 82.008C106.275 82.2477 106.166 82.8052 105.934 83.2664L105.325 83.4683C105.365 83.6564 105.398 83.8117 105.43 83.9606C105.102 84.3455 104.592 84.5188 104.392 85.044C104.225 85.4823 103.717 85.6829 103.514 86.1483C103.371 86.4734 103.063 86.7408 102.786 86.9867C102.651 87.1071 102.421 87.121 102.218 87.1882C101.84 88.0907 101.253 88.8147 100.384 89.2883C99.8662 90.1603 98.8747 90.5985 98.3669 91.4595C98.198 91.7455 97.9184 91.7834 97.7227 92.0014C96.8142 93.0161 95.8478 93.9762 94.9571 95.0112C94.2551 95.8277 93.458 96.565 92.6757 97.3086C92.1898 97.771 91.7983 98.2855 91.4484 98.858C90.7197 100.05 90.0198 101.257 89.3089 102.459C88.5807 103.689 87.8821 104.939 87.1341 106.154C86.003 107.991 85.1456 109.959 84.149 111.859C83.4769 113.14 82.9649 114.497 82.3481 115.807C81.7839 117.006 81.3194 118.258 80.8044 119.484C80.1354 121.078 79.5514 122.71 78.985 124.345C78.3464 126.19 77.8265 128.074 77.3327 129.962C76.8682 131.736 76.5377 133.545 76.1077 135.325C75.7262 136.905 75.3081 138.483 74.8852 140.056C74.5777 141.201 74.3307 142.363 74.0215 143.508C73.6262 144.97 73.2148 146.427 72.7086 147.857C72.4975 148.454 72.3692 149.076 72.1442 149.675C72.0356 149.964 71.9773 150.304 71.8015 150.557C71.6184 150.821 71.6929 151.115 71.5773 151.386C71.1605 152.365 70.8499 153.382 70.4156 154.361C69.931 155.452 69.5437 156.59 69.033 157.674C68.8971 157.962 68.6466 158.212 68.5256 158.47C68.3852 158.77 68.3737 159.116 68.0817 159.37C67.8639 159.56 68.0775 159.984 67.6739 160.159C67.5444 160.216 67.5474 160.609 67.4564 160.847C67.2074 161.5 66.6868 161.976 66.3978 162.6C66.1042 163.234 65.8334 163.891 65.4473 164.468C64.8347 165.382 64.342 166.369 63.7203 167.27C63.1281 168.128 62.7124 169.13 61.8915 169.803C61.6697 169.985 61.9826 170.3 61.639 170.335C60.6173 171.694 59.6043 173.059 58.5687 174.407C58.1346 174.973 57.5919 175.45 57.1091 175.971C56.4827 176.646 55.945 177.417 55.2 177.989C54.2956 178.683 53.6867 179.713 52.6499 180.261C52.4895 180.83 51.8367 180.938 51.5691 181.414C51.4639 181.601 51.2876 181.504 51.1565 181.428C50.5755 182.153 49.9456 182.809 49.1896 183.365C48.249 184.057 47.4048 184.879 46.4698 185.579C45.0312 186.655 43.5949 187.732 42.0371 188.645C41.4099 189.013 40.7975 189.382 40.1407 189.704C39.5334 190.001 38.9865 190.445 38.3593 190.738C38.283 190.773 38.2467 190.931 38.1781 190.942C37.3842 191.065 36.8334 191.752 36.0442 191.863C35.4406 191.948 35.0654 192.473 34.4817 192.608C33.9325 192.735 33.3313 192.846 32.8818 193.153C31.8438 193.86 30.6411 194.1 29.4878 194.415C28.7478 194.618 27.9944 194.847 27.2357 194.977C26.0372 195.181 24.8174 195.399 23.6044 195.336C21.9268 195.251 20.2809 194.981 18.6649 194.407C17.4179 193.964 16.4372 193.22 15.44 192.433C14.7535 191.892 14.1972 191.212 13.6739 190.545C13.2846 190.048 12.9792 189.433 12.6221 188.886C12.1073 188.097 11.7473 187.227 11.2225 186.442C10.929 186.003 10.7373 185.464 10.5359 184.972C9.66203 182.842 8.78607 180.707 8.13074 178.491C8.01006 178.084 8.17858 177.666 7.9615 177.264C7.77467 176.918 7.58887 176.51 7.59778 176.134C7.61117 175.59 7.33523 175.127 7.31123 174.63C7.28589 174.099 7.08595 173.629 7.01179 173.128C6.85555 172.071 6.91152 170.986 6.5766 169.953C6.77037 168.135 6.41426 166.324 6.5798 164.492C6.70171 163.147 6.82384 161.794 6.89535 160.444C6.95126 159.392 7.18252 158.369 7.24745 157.322C7.2724 156.914 7.54817 156.526 7.61375 156.142C7.67675 155.776 7.54832 155.359 7.60724 154.941C7.65842 154.58 7.75672 154.299 8.01528 154.13C7.59815 153.568 8.19153 153.089 8.0777 152.544C7.97041 152.032 8.18071 151.451 8.2678 150.903C8.35546 150.353 8.48842 149.81 8.55604 149.258C8.62755 148.674 8.7163 148.097 8.81305 147.517C8.90372 146.974 8.88341 146.413 8.91003 145.86C8.93712 145.297 9.16966 144.778 9.25711 144.222C9.34407 143.668 9.27199 143.111 9.40495 142.562C9.5329 142.033 9.55882 141.478 9.62838 140.945C9.36034 140.848 9.43983 141.096 9.3246 141.126C8.99774 140.944 9.21795 140.715 9.3319 140.558C9.50566 140.318 9.23396 140.127 9.32381 139.901C9.40216 139.702 9.48879 139.463 9.4443 139.27C9.39073 139.037 9.43896 138.836 9.44491 138.617C9.45084 138.413 9.22189 138.169 9.61503 138.088C9.72114 137.842 9.51629 137.654 9.48809 137.43C9.68673 137.266 9.81166 137.059 9.76838 136.711C9.91635 136.892 9.99416 136.987 10.073 137.084C10.4107 136.758 10.3148 136.325 10.0581 136.152C9.63921 135.87 9.83656 135.539 9.84583 135.284C9.68872 135.029 9.30046 135.351 9.29592 134.914C9.72369 134.657 10.1897 134.385 9.94515 133.733C10.3361 133.189 9.96662 132.571 10.1158 131.982C10.2559 131.43 10.0455 130.82 10.2204 130.233C10.3111 129.929 9.97747 129.662 10.0547 129.296C10.1423 128.88 9.96518 128.455 10.044 127.998C10.0947 127.701 9.93759 127.319 9.96781 126.946C9.98985 126.674 9.83268 126.387 9.75384 126.099C9.85324 126.04 9.93316 125.993 10.0368 125.932C9.64627 125.555 9.79133 125.051 9.7589 124.6C9.72375 124.114 9.75618 123.605 9.86954 123.133C9.95173 122.793 9.87752 122.501 9.66763 122.35C9.45277 122.195 9.71532 121.867 9.39608 121.828C9.68532 121.479 9.09528 121.074 9.47259 120.72C9.64656 120.556 9.45151 120.269 9.63235 120.089C9.36753 120.068 9.37211 119.716 9.1232 119.676C9.16613 118.942 9.16612 118.942 9.41662 118.68C9.07249 118.381 8.83056 118.075 9.13981 117.553C9.31518 117.258 8.83287 116.864 9.03761 116.47C8.91861 116.415 8.72065 116.323 8.78491 116.22C8.9986 115.877 8.62934 115.572 8.74479 115.289C8.88409 114.948 8.65603 114.719 8.60011 114.442C8.53879 114.138 8.25542 113.933 8.29006 113.553C8.32032 113.225 7.9936 112.909 8.17631 112.525C8.26819 112.33 7.83233 112.389 7.9406 112.105C8.01487 111.908 7.56906 111.838 7.75935 111.498C7.90162 111.244 7.63579 110.943 7.561 110.662C7.49311 110.406 7.39763 110.157 7.31375 109.904C7.11846 110.003 7.11846 110.003 7.06953 110.089C6.9603 110.073 6.93137 109.989 6.88785 109.902C6.75198 109.628 7.00124 109.351 6.84004 109.054C6.72688 108.847 6.58574 108.605 6.68672 108.309C6.7643 108.083 6.40078 108.049 6.39139 107.798C6.38398 107.607 6.54564 107.458 6.4398 107.24C5.93433 106.201 6.05877 104.991 5.54645 103.968C5.6875 103.75 5.77244 103.987 5.87967 103.957C5.89107 103.935 5.92601 103.897 5.91806 103.876C5.50284 102.843 5.54919 101.69 5.09131 100.67C4.97511 100.413 5.18079 100.078 4.84021 99.8669C4.61326 99.726 4.98553 99.3363 4.64043 99.1836C4.8561 98.8338 4.56858 98.5555 4.49858 98.2498C4.4318 97.9585 4.31575 97.6793 4.22149 97.3949C4.11675 97.0787 4.07257 96.7205 3.89092 96.4576C3.69251 96.1698 4.20339 95.6929 3.61402 95.5601C3.86988 95.2187 3.58434 94.9312 3.509 94.6293C3.4209 94.2748 3.28493 93.9319 3.16981 93.5845C3.06507 93.2684 2.92893 92.9588 2.86278 92.6345C2.75391 92.1032 2.79919 91.5386 2.53501 91.0406C2.28191 90.5632 2.58667 90.0292 2.25448 89.5928L2.5414 89.4977C3.08212 91.3441 3.32679 93.2731 4.15826 95.149Z" fill="#01B880"/>
</svg>
