<svg width="153" height="143" viewBox="0 0 153 143" fill="none" xmlns="http://www.w3.org/2000/svg">
<path opacity="0.1" d="M64.5 137C113.377 137 153 97.3772 153 48.5C153 -0.377213 113.377 -40 64.5 -40C15.6228 -40 -24 -0.377213 -24 48.5C-24 97.3772 15.6228 137 64.5 137Z" fill="#01B880"/>
<path opacity="0.7" d="M0.713505 52.6781C7.99324 46.8323 16.768 43.1714 26.0273 42.1169C35.2866 41.0624 44.654 42.6572 53.051 46.7177C61.4479 50.7782 68.533 57.1392 73.4903 65.0684C78.4476 72.9975 81.0756 82.1724 81.0717 91.5365C81.0678 100.901 78.4322 110.073 73.4683 117.998C68.5044 125.923 61.4141 132.278 53.0138 136.332C44.6135 140.385 35.2447 141.972 25.9863 140.91C16.7278 139.848 7.95617 136.18 0.68129 130.328" stroke="#C1EADC" stroke-width="2.82072" stroke-miterlimit="10" stroke-dasharray="6.35 6.35"/>
</svg>
