<svg width="10" height="18" viewBox="0 0 10 18" fill="none" xmlns="http://www.w3.org/2000/svg">
<path d="M7.69223 3.52174H9.61529C9.82759 3.52174 9.9999 3.34643 9.9999 3.13043V0.494217C9.9999 0.289174 9.8449 0.118565 9.64413 0.104087C9.03222 0.0598696 7.83684 0 6.97724 0C4.61534 0 3.07689 1.44 3.07689 4.05704V6.65217H0.384611C0.172306 6.65217 0 6.82748 0 7.04348V9.78261C0 9.99861 0.172306 10.1739 0.384611 10.1739H3.07689V17.6087C3.07689 17.8247 3.2492 18 3.4615 18H6.15378C6.36609 18 6.5384 17.8247 6.5384 17.6087V10.1739H9.31606C9.51221 10.1739 9.67682 10.024 9.69836 9.82565L9.99759 7.08652C10.023 6.85487 9.84452 6.65217 9.61529 6.65217H6.5384V4.69565C6.5384 4.04726 7.05493 3.52174 7.69223 3.52174Z" fill="white"/>
</svg>
